<svg height="1080" viewBox="0 0 1920 1080" width="1920" xmlns="http://www.w3.org/2000/svg">
<g class="g-chart">
<g class="g-title" transform="translate(960,25)">
<text dy=".35em" fill="#777" font-family="sans-serif" font-size="24px" text-anchor="middle" x="0" y="0">
Description rating (min appearance: 500)
</text>
</g>
<g class="x-axis" transform="translate(60,1030)">
<line shape-rendering="crispEdges" stroke="#bbbbbb" stroke-width="1" x1="0" x2="1860" y1="0" y2="0"/>
<g class="tick" transform="translate(55.24746,0)">
<line shape-rendering="crispEdges" stroke="#bbbbbb" stroke-width="1px" x1="0" x2="0" y1="0" y2="6"/>
<text dy=".35em" fill="#777" font-family="sans-serif" font-size="12px" text-anchor="middle" transform="rotate(0,0,16)" x="0" y="16">
survival
</text>
</g>
<g class="tick" transform="translate(147.32668,0)">
<line shape-rendering="crispEdges" stroke="#bbbbbb" stroke-width="1px" x1="0" x2="0" y1="0" y2="6"/>
<text dy=".35em" fill="#777" font-family="sans-serif" font-size="12px" text-anchor="middle" transform="rotate(0,0,16)" x="0" y="16">
simulation
</text>
</g>
<g class="tick" transform="translate(239.40588,0)">
<line shape-rendering="crispEdges" stroke="#bbbbbb" stroke-width="1px" x1="0" x2="0" y1="0" y2="6"/>
<text dy=".35em" fill="#777" font-family="sans-serif" font-size="12px" text-anchor="middle" transform="rotate(0,0,16)" x="0" y="16">
open
</text>
</g>
<g class="tick" transform="translate(331.4851,0)">
<line shape-rendering="crispEdges" stroke="#bbbbbb" stroke-width="1px" x1="0" x2="0" y1="0" y2="6"/>
<text dy=".35em" fill="#777" font-family="sans-serif" font-size="12px" text-anchor="middle" transform="rotate(0,0,16)" x="0" y="16">
person
</text>
</g>
<g class="tick" transform="translate(423.56433,0)">
<line shape-rendering="crispEdges" stroke="#bbbbbb" stroke-width="1px" x1="0" x2="0" y1="0" y2="6"/>
<text dy=".35em" fill="#777" font-family="sans-serif" font-size="12px" text-anchor="middle" transform="rotate(0,0,16)" x="0" y="16">
resources
</text>
</g>
<g class="tick" transform="translate(515.64355,0)">
<line shape-rendering="crispEdges" stroke="#bbbbbb" stroke-width="1px" x1="0" x2="0" y1="0" y2="6"/>
<text dy=".35em" fill="#777" font-family="sans-serif" font-size="12px" text-anchor="middle" transform="rotate(0,0,16)" x="0" y="16">
role
</text>
</g>
<g class="tick" transform="translate(607.7227,0)">
<line shape-rendering="crispEdges" stroke="#bbbbbb" stroke-width="1px" x1="0" x2="0" y1="0" y2="6"/>
<text dy=".35em" fill="#777" font-family="sans-serif" font-size="12px" text-anchor="middle" transform="rotate(0,0,16)" x="0" y="16">
start
</text>
</g>
<g class="tick" transform="translate(699.80194,0)">
<line shape-rendering="crispEdges" stroke="#bbbbbb" stroke-width="1px" x1="0" x2="0" y1="0" y2="6"/>
<text dy=".35em" fill="#777" font-family="sans-serif" font-size="12px" text-anchor="middle" transform="rotate(0,0,16)" x="0" y="16">
real
</text>
</g>
<g class="tick" transform="translate(791.88116,0)">
<line shape-rendering="crispEdges" stroke="#bbbbbb" stroke-width="1px" x1="0" x2="0" y1="0" y2="6"/>
<text dy=".35em" fill="#777" font-family="sans-serif" font-size="12px" text-anchor="middle" transform="rotate(0,0,16)" x="0" y="16">
simulator
</text>
</g>
<g class="tick" transform="translate(883.9604,0)">
<line shape-rendering="crispEdges" stroke="#bbbbbb" stroke-width="1px" x1="0" x2="0" y1="0" y2="6"/>
<text dy=".35em" fill="#777" font-family="sans-serif" font-size="12px" text-anchor="middle" transform="rotate(0,0,16)" x="0" y="16">
virtual
</text>
</g>
<g class="tick" transform="translate(976.0396,0)">
<line shape-rendering="crispEdges" stroke="#bbbbbb" stroke-width="1px" x1="0" x2="0" y1="0" y2="6"/>
<text dy=".35em" fill="#777" font-family="sans-serif" font-size="12px" text-anchor="middle" transform="rotate(0,0,16)" x="0" y="16">
art
</text>
</g>
<g class="tick" transform="translate(1068.1188,0)">
<line shape-rendering="crispEdges" stroke="#bbbbbb" stroke-width="1px" x1="0" x2="0" y1="0" y2="6"/>
<text dy=".35em" fill="#777" font-family="sans-serif" font-size="12px" text-anchor="middle" transform="rotate(0,0,16)" x="0" y="16">
girl
</text>
</g>
<g class="tick" transform="translate(1160.198,0)">
<line shape-rendering="crispEdges" stroke="#bbbbbb" stroke-width="1px" x1="0" x2="0" y1="0" y2="6"/>
<text dy=".35em" fill="#777" font-family="sans-serif" font-size="12px" text-anchor="middle" transform="rotate(0,0,16)" x="0" y="16">
love
</text>
</g>
<g class="tick" transform="translate(1252.2772,0)">
<line shape-rendering="crispEdges" stroke="#bbbbbb" stroke-width="1px" x1="0" x2="0" y1="0" y2="6"/>
<text dy=".35em" fill="#777" font-family="sans-serif" font-size="12px" text-anchor="middle" transform="rotate(0,0,16)" x="0" y="16">
retro
</text>
</g>
<g class="tick" transform="translate(1344.3564,0)">
<line shape-rendering="crispEdges" stroke="#bbbbbb" stroke-width="1px" x1="0" x2="0" y1="0" y2="6"/>
<text dy=".35em" fill="#777" font-family="sans-serif" font-size="12px" text-anchor="middle" transform="rotate(0,0,16)" x="0" y="16">
jump
</text>
</g>
<g class="tick" transform="translate(1436.4357,0)">
<line shape-rendering="crispEdges" stroke="#bbbbbb" stroke-width="1px" x1="0" x2="0" y1="0" y2="6"/>
<text dy=".35em" fill="#777" font-family="sans-serif" font-size="12px" text-anchor="middle" transform="rotate(0,0,16)" x="0" y="16">
puzzles
</text>
</g>
<g class="tick" transform="translate(1528.5149,0)">
<line shape-rendering="crispEdges" stroke="#bbbbbb" stroke-width="1px" x1="0" x2="0" y1="0" y2="6"/>
<text dy=".35em" fill="#777" font-family="sans-serif" font-size="12px" text-anchor="middle" transform="rotate(0,0,16)" x="0" y="16">
platformer
</text>
</g>
<g class="tick" transform="translate(1620.5941,0)">
<line shape-rendering="crispEdges" stroke="#bbbbbb" stroke-width="1px" x1="0" x2="0" y1="0" y2="6"/>
<text dy=".35em" fill="#777" font-family="sans-serif" font-size="12px" text-anchor="middle" transform="rotate(0,0,16)" x="0" y="16">
puzzle
</text>
</g>
<g class="tick" transform="translate(1712.6733,0)">
<line shape-rendering="crispEdges" stroke="#bbbbbb" stroke-width="1px" x1="0" x2="0" y1="0" y2="6"/>
<text dy=".35em" fill="#777" font-family="sans-serif" font-size="12px" text-anchor="middle" transform="rotate(0,0,16)" x="0" y="16">
visual
</text>
</g>
<g class="tick" transform="translate(1804.7526,0)">
<line shape-rendering="crispEdges" stroke="#bbbbbb" stroke-width="1px" x1="0" x2="0" y1="0" y2="6"/>
<text dy=".35em" fill="#777" font-family="sans-serif" font-size="12px" text-anchor="middle" transform="rotate(0,0,16)" x="0" y="16">
novel
</text>
</g>
<text fill="#777" font-family="sans-serif" font-size="14px" text-anchor="middle" transform="rotate(0)" x="930" y="42">
Word
</text>
</g>
<g class="y-axis" transform="translate(60,90)">
<line shape-rendering="crispEdges" stroke="#bbbbbb" stroke-width="1" x1="0" x2="0" y1="0" y2="940"/>
<g class="tick" transform="translate(0,940)">
<line shape-rendering="crispEdges" stroke="#bbbbbb" stroke-width="1px" x1="0" x2="-6" y1="0" y2="0"/>
<text dy=".35em" fill="#777" font-family="sans-serif" font-size="12px" text-anchor="end" transform="rotate(0,-12,0)" x="-12" y="0">
0
</text>
</g>
<g class="tick" transform="translate(0,846)">
<line shape-rendering="crispEdges" stroke="#bbbbbb" stroke-width="1px" x1="0" x2="-6" y1="0" y2="0"/>
<text dy=".35em" fill="#777" font-family="sans-serif" font-size="12px" text-anchor="end" transform="rotate(0,-12,0)" x="-12" y="0">
10
</text>
</g>
<g class="tick" transform="translate(0,752)">
<line shape-rendering="crispEdges" stroke="#bbbbbb" stroke-width="1px" x1="0" x2="-6" y1="0" y2="0"/>
<text dy=".35em" fill="#777" font-family="sans-serif" font-size="12px" text-anchor="end" transform="rotate(0,-12,0)" x="-12" y="0">
20
</text>
</g>
<g class="tick" transform="translate(0,658)">
<line shape-rendering="crispEdges" stroke="#bbbbbb" stroke-width="1px" x1="0" x2="-6" y1="0" y2="0"/>
<text dy=".35em" fill="#777" font-family="sans-serif" font-size="12px" text-anchor="end" transform="rotate(0,-12,0)" x="-12" y="0">
30
</text>
</g>
<g class="tick" transform="translate(0,564)">
<line shape-rendering="crispEdges" stroke="#bbbbbb" stroke-width="1px" x1="0" x2="-6" y1="0" y2="0"/>
<text dy=".35em" fill="#777" font-family="sans-serif" font-size="12px" text-anchor="end" transform="rotate(0,-12,0)" x="-12" y="0">
40
</text>
</g>
<g class="tick" transform="translate(0,470)">
<line shape-rendering="crispEdges" stroke="#bbbbbb" stroke-width="1px" x1="0" x2="-6" y1="0" y2="0"/>
<text dy=".35em" fill="#777" font-family="sans-serif" font-size="12px" text-anchor="end" transform="rotate(0,-12,0)" x="-12" y="0">
50
</text>
</g>
<g class="tick" transform="translate(0,376)">
<line shape-rendering="crispEdges" stroke="#bbbbbb" stroke-width="1px" x1="0" x2="-6" y1="0" y2="0"/>
<text dy=".35em" fill="#777" font-family="sans-serif" font-size="12px" text-anchor="end" transform="rotate(0,-12,0)" x="-12" y="0">
60
</text>
</g>
<g class="tick" transform="translate(0,282)">
<line shape-rendering="crispEdges" stroke="#bbbbbb" stroke-width="1px" x1="0" x2="-6" y1="0" y2="0"/>
<text dy=".35em" fill="#777" font-family="sans-serif" font-size="12px" text-anchor="end" transform="rotate(0,-12,0)" x="-12" y="0">
70
</text>
</g>
<g class="tick" transform="translate(0,188)">
<line shape-rendering="crispEdges" stroke="#bbbbbb" stroke-width="1px" x1="0" x2="-6" y1="0" y2="0"/>
<text dy=".35em" fill="#777" font-family="sans-serif" font-size="12px" text-anchor="end" transform="rotate(0,-12,0)" x="-12" y="0">
80
</text>
</g>
<g class="tick" transform="translate(0,94)">
<line shape-rendering="crispEdges" stroke="#bbbbbb" stroke-width="1px" x1="0" x2="-6" y1="0" y2="0"/>
<text dy=".35em" fill="#777" font-family="sans-serif" font-size="12px" text-anchor="end" transform="rotate(0,-12,0)" x="-12" y="0">
90
</text>
</g>
<g class="tick" transform="translate(0,0)">
<line shape-rendering="crispEdges" stroke="#bbbbbb" stroke-width="1px" x1="0" x2="-6" y1="0" y2="0"/>
<text dy=".35em" fill="#777" font-family="sans-serif" font-size="12px" text-anchor="end" transform="rotate(0,-12,0)" x="-12" y="0">
100
</text>
</g>
<text fill="#777" font-family="sans-serif" font-size="14px" text-anchor="middle" transform="rotate(-90)" x="-470" y="-42">
Average Rating
</text>
</g>
<g class="g-view" transform="translate(60,90)">
<g>
<g class="bar" transform="translate(662.9703,0)">
<rect fill="#1f77b4" height="679.0484" shape-rendering="crispEdges" width="73.663376" x="0" y="260.9516"/>
<text dy=".35em" fill="#333" font-family="sans-serif" font-size="14px" text-anchor="middle" x="36.831688" y="244.9516">
72.23919
</text>
</g>
<g class="bar" transform="translate(847.1287,0)">
<rect fill="#1f77b4" height="679.86707" shape-rendering="crispEdges" width="73.663376" x="0" y="260.13293"/>
<text dy=".35em" fill="#333" font-family="sans-serif" font-size="14px" text-anchor="middle" x="36.831688" y="244.13293">
72.32629
</text>
</g>
<g class="bar" transform="translate(386.73264,0)">
<rect fill="#1f77b4" height="672.3079" shape-rendering="crispEdges" width="73.663376" x="0" y="267.69208"/>
<text dy=".35em" fill="#333" font-family="sans-serif" font-size="14px" text-anchor="middle" x="36.831688" y="251.69208">
71.522125
</text>
</g>
<g class="bar" transform="translate(755.0495,0)">
<rect fill="#1f77b4" height="679.5378" shape-rendering="crispEdges" width="73.663376" x="0" y="260.46222"/>
<text dy=".35em" fill="#333" font-family="sans-serif" font-size="14px" text-anchor="middle" x="36.831688" y="244.46222">
72.29125
</text>
</g>
<g class="bar" transform="translate(110.49499,0)">
<rect fill="#1f77b4" height="651.2238" shape-rendering="crispEdges" width="73.663376" x="0" y="288.77618"/>
<text dy=".35em" fill="#333" font-family="sans-serif" font-size="14px" text-anchor="middle" x="36.831688" y="272.77618">
69.27913
</text>
</g>
<g class="bar" transform="translate(1491.6832,0)">
<rect fill="#1f77b4" height="778.8092" shape-rendering="crispEdges" width="73.663376" x="0" y="161.1908"/>
<text dy=".35em" fill="#333" font-family="sans-serif" font-size="14px" text-anchor="middle" x="36.831688" y="145.1908">
82.85204
</text>
</g>
<g class="bar" transform="translate(1031.2871,0)">
<rect fill="#1f77b4" height="758.3389" shape-rendering="crispEdges" width="73.663376" x="0" y="181.66107"/>
<text dy=".35em" fill="#333" font-family="sans-serif" font-size="14px" text-anchor="middle" x="36.831688" y="165.66107">
80.674355
</text>
</g>
<g class="bar" transform="translate(939.20795,0)">
<rect fill="#1f77b4" height="758.057" shape-rendering="crispEdges" width="73.663376" x="0" y="181.943"/>
<text dy=".35em" fill="#333" font-family="sans-serif" font-size="14px" text-anchor="middle" x="36.831688" y="165.943">
80.64436
</text>
</g>
<g class="bar" transform="translate(570.89105,0)">
<rect fill="#1f77b4" height="675.1951" shape-rendering="crispEdges" width="73.663376" x="0" y="264.80487"/>
<text dy=".35em" fill="#333" font-family="sans-serif" font-size="14px" text-anchor="middle" x="36.831688" y="248.80487">
71.82927
</text>
</g>
<g class="bar" transform="translate(1399.604,0)">
<rect fill="#1f77b4" height="771.17694" shape-rendering="crispEdges" width="73.663376" x="0" y="168.82306"/>
<text dy=".35em" fill="#333" font-family="sans-serif" font-size="14px" text-anchor="middle" x="36.831688" y="152.82306">
82.0401
</text>
</g>
<g class="bar" transform="translate(202.5742,0)">
<rect fill="#1f77b4" height="668.664" shape-rendering="crispEdges" width="73.663376" x="0" y="271.336"/>
<text dy=".35em" fill="#333" font-family="sans-serif" font-size="14px" text-anchor="middle" x="36.831688" y="255.336">
71.13447
</text>
</g>
<g class="bar" transform="translate(1307.5248,0)">
<rect fill="#1f77b4" height="767.622" shape-rendering="crispEdges" width="73.663376" x="0" y="172.37799"/>
<text dy=".35em" fill="#333" font-family="sans-serif" font-size="14px" text-anchor="middle" x="36.831688" y="156.37799">
81.66192
</text>
</g>
<g class="bar" transform="translate(18.415771,0)">
<rect fill="#1f77b4" height="649.82306" shape-rendering="crispEdges" width="73.663376" x="0" y="290.17694"/>
<text dy=".35em" fill="#333" font-family="sans-serif" font-size="14px" text-anchor="middle" x="36.831688" y="274.17694">
69.13011
</text>
</g>
<g class="bar" transform="translate(478.81186,0)">
<rect fill="#1f77b4" height="673.506" shape-rendering="crispEdges" width="73.663376" x="0" y="266.49402"/>
<text dy=".35em" fill="#333" font-family="sans-serif" font-size="14px" text-anchor="middle" x="36.831688" y="250.49402">
71.649574
</text>
</g>
<g class="bar" transform="translate(1675.8417,0)">
<rect fill="#1f77b4" height="785.4814" shape-rendering="crispEdges" width="73.663376" x="0" y="154.51862"/>
<text dy=".35em" fill="#333" font-family="sans-serif" font-size="14px" text-anchor="middle" x="36.831688" y="138.51862">
83.56185
</text>
</g>
<g class="bar" transform="translate(1123.3663,0)">
<rect fill="#1f77b4" height="759.8433" shape-rendering="crispEdges" width="73.663376" x="0" y="180.15668"/>
<text dy=".35em" fill="#333" font-family="sans-serif" font-size="14px" text-anchor="middle" x="36.831688" y="164.15668">
80.8344
</text>
</g>
<g class="bar" transform="translate(294.6534,0)">
<rect fill="#1f77b4" height="669.0192" shape-rendering="crispEdges" width="73.663376" x="0" y="270.98077"/>
<text dy=".35em" fill="#333" font-family="sans-serif" font-size="14px" text-anchor="middle" x="36.831688" y="254.98077">
71.17226
</text>
</g>
<g class="bar" transform="translate(1583.7625,0)">
<rect fill="#1f77b4" height="782.7566" shape-rendering="crispEdges" width="73.663376" x="0" y="157.24341"/>
<text dy=".35em" fill="#333" font-family="sans-serif" font-size="14px" text-anchor="middle" x="36.831688" y="141.24341">
83.27198
</text>
</g>
<g class="bar" transform="translate(1215.4456,0)">
<rect fill="#1f77b4" height="765.7574" shape-rendering="crispEdges" width="73.663376" x="0" y="174.24261"/>
<text dy=".35em" fill="#333" font-family="sans-serif" font-size="14px" text-anchor="middle" x="36.831688" y="158.24261">
81.463554
</text>
</g>
<g class="bar" transform="translate(1767.9209,0)">
<rect fill="#1f77b4" height="786.281" shape-rendering="crispEdges" width="73.663376" x="0" y="153.719"/>
<text dy=".35em" fill="#333" font-family="sans-serif" font-size="14px" text-anchor="middle" x="36.831688" y="137.719">
83.64692
</text>
</g>
</g>
</g>
</g>
</svg>